<svg width="26" height="30" viewBox="0 0 26 30" fill="none" xmlns="http://www.w3.org/2000/svg">
<path d="M6.33333 13.6667V8.33341C6.33333 6.5653 7.03571 4.86961 8.28595 3.61937C9.5362 2.36913 11.2319 1.66675 13 1.66675C14.7681 1.66675 16.4638 2.36913 17.714 3.61937C18.9643 4.86961 19.6667 6.5653 19.6667 8.33341V13.6667M3.66667 13.6667H22.3333C23.8061 13.6667 25 14.8607 25 16.3334V25.6667C25 27.1395 23.8061 28.3334 22.3333 28.3334H3.66667C2.19391 28.3334 1 27.1395 1 25.6667V16.3334C1 14.8607 2.19391 13.6667 3.66667 13.6667Z" stroke="white" stroke-width="2" stroke-linecap="round" stroke-linejoin="round"/>
</svg>
