<svg width="34" height="35" viewBox="0 0 34 35" xmlns="http://www.w3.org/2000/svg">
    <rect width="34" height="35" fill="white"/>
    <path d="M15.0506 0.635992C6.92144 0.635992 0.308594 7.24884 0.308594 15.378C0.308594 23.5072 6.92144 30.12 15.0506 30.12C17.5357 30.12 19.9786 29.5303 22.0425 28.3931C22.2078 28.592 22.3911 28.7753 22.5901 28.9407L26.8021 33.1527C27.191 33.5903 27.6653 33.9438 28.1958 34.1915C28.7263 34.4392 29.3018 34.5759 29.887 34.5931C30.4722 34.6103 31.0548 34.5078 31.599 34.2917C32.1431 34.0756 32.6373 33.7506 33.0513 33.3366C33.4653 32.9226 33.7903 32.4284 34.0064 31.8842C34.2225 31.3401 34.325 30.7575 34.3078 30.1723C34.2906 29.5871 34.1539 29.0116 33.9062 28.4811C33.6585 27.9506 33.305 27.4763 32.8674 27.0874L28.6554 22.8754C28.4502 22.6701 28.2244 22.4866 27.9815 22.3278C29.1187 20.2639 29.8347 17.8631 29.8347 15.3359C29.8347 7.20672 23.2219 0.593872 15.0927 0.593872L15.0506 0.635992ZM15.0506 4.84799C20.9053 4.84799 25.5806 9.52332 25.5806 15.378C25.5806 18.1579 24.5697 20.7272 22.8007 22.6226L22.6743 22.749C22.4754 22.9143 22.2921 23.0976 22.1268 23.2966C20.2735 24.9814 17.7463 25.9501 15.0085 25.9501C9.1538 25.9501 4.47848 21.2748 4.47848 15.4201C4.47848 9.56544 9.1538 4.89011 15.0085 4.89011L15.0506 4.84799Z" fill="black"/>
</svg>
