<svg xmlns="http://www.w3.org/2000/svg"  viewBox="0 0 50 50" width="50px" height="50px"><path d="M 6 3 A 1.0001 1.0001 0 0 0 5.1679688 4.5546875 L 18.798828 25 L 5.1679688 45.445312 A 1.0001 1.0001 0 0 0 6 47 L 14.558594 47 A 1.0001 1.0001 0 0 0 15.378906 46.572266 L 25 32.75 L 34.621094 46.572266 A 1.0001 1.0001 0 0 0 35.441406 47 L 44 47 A 1.0001 1.0001 0 0 0 44.832031 45.445312 L 31.201172 25 L 44.832031 4.5546875 A 1.0001 1.0001 0 0 0 44 3 L 35.441406 3 A 1.0001 1.0001 0 0 0 34.621094 3.4277344 L 25 17.25 L 15.378906 3.4277344 A 1.0001 1.0001 0 0 0 14.558594 3 L 6 3 z M 7.8691406 5 L 14.035156 5 L 24.179688 19.572266 A 1.0001 1.0001 0 0 0 25.820312 19.572266 L 35.964844 5 L 42.130859 5 L 29.167969 24.445312 A 1.0001 1.0001 0 0 0 29.167969 25.554688 L 42.130859 45 L 35.964844 45 L 25.820312 30.427734 A 1.0001 1.0001 0 0 0 24.179688 30.427734 L 14.035156 45 L 7.8691406 45 L 20.832031 25.554688 A 1.0001 1.0001 0 0 0 20.832031 24.445312 L 7.8691406 5 z"/></svg>